<?xml version="1.0" encoding="UTF-8"?>
<svg id="a" data-name="Слой 1" xmlns="http://www.w3.org/2000/svg" xmlns:xlink="http://www.w3.org/1999/xlink" viewBox="0 0 16 16">
  <defs>
    <style>
      .j {
        fill: #edbc64;
      }

      .k {
        fill: #931a1d;
      }

      .l {
        fill: url(#h);
      }

      .m {
        fill: url(#i);
      }

      .n {
        fill: #9b1e1f;
      }

      .o {
        fill: #d74227;
      }

      .p {
        fill: #78263f;
      }

      .q, .r, .s {
        fill: #ffdc83;
      }

      .t {
        clip-path: url(#b);
      }

      .u {
        fill: #302b29;
      }

      .r {
        opacity: .6;
      }

      .r, .v, .w, .s {
        isolation: isolate;
      }

      .v {
        fill: url(#g);
      }

      .v, .w {
        opacity: .7;
      }

      .x {
        fill: #d72d27;
      }

      .y {
        mask: url(#f);
      }

      .z {
        fill: #bf4027;
      }

      .aa {
        mask: url(#d);
      }

      .ab {
        fill: none;
      }

      .ac {
        fill: #d08429;
      }

      .ad {
        clip-path: url(#c);
      }

      .ae {
        fill: #c93a27;
      }

      .w {
        fill: url(#e);
      }

      .s {
        opacity: .3;
      }
    </style>
    <clipPath id="b">
      <rect class="ab" x="1.17" y="1.63" width="14.46" height="11.29"/>
    </clipPath>
    <clipPath id="c">
      <rect class="ab" x="1.17" y="1.63" width="14.46" height="11.29"/>
    </clipPath>
    <mask id="d" data-name="mask" x="2.38" y="7.9" width="2.22" height="4.48" maskUnits="userSpaceOnUse"/>
    <linearGradient id="e" data-name="Безымянный градиент 2" x1="2.21" y1="7.38" x2="4.27" y2="8.18" gradientTransform="translate(0 18) scale(1 -1)" gradientUnits="userSpaceOnUse">
      <stop offset=".1" stop-color="#ccd8d4"/>
      <stop offset=".4" stop-color="#aca48b"/>
      <stop offset=".7" stop-color="#947d53"/>
      <stop offset=".9" stop-color="#856431"/>
      <stop offset="1" stop-color="#7f5b24"/>
    </linearGradient>
    <mask id="f" data-name="mask-1" x="10.92" y="7.9" width="2.33" height="4.45" maskUnits="userSpaceOnUse"/>
    <linearGradient id="g" data-name="Безымянный градиент 4" x1="12.76" y1="7.81" x2="11.47" y2="8.03" gradientTransform="translate(0 18) scale(1 -1)" gradientUnits="userSpaceOnUse">
      <stop offset=".1" stop-color="#ccd8d4"/>
      <stop offset=".4" stop-color="#aca48b"/>
      <stop offset=".7" stop-color="#947d53"/>
      <stop offset=".9" stop-color="#856431"/>
      <stop offset="1" stop-color="#7f5b24"/>
    </linearGradient>
    <linearGradient id="h" data-name="Безымянный градиент 5" x1="14.89" y1="6.23" x2="15.45" y2="4.81" gradientTransform="translate(0 18) scale(1 -1)" gradientUnits="userSpaceOnUse">
      <stop offset="0" stop-color="#fff"/>
      <stop offset="1" stop-color="#c93a27"/>
    </linearGradient>
    <linearGradient id="i" data-name="Безымянный градиент 6" x1="15.89" y1="7.23" x2="16.43" y2="5.84" gradientTransform="translate(0 18) scale(1 -1)" gradientUnits="userSpaceOnUse">
      <stop offset="0" stop-color="#fff"/>
      <stop offset="1" stop-color="#c93a27"/>
    </linearGradient>
  </defs>
  <g class="t">
    <g class="ad">
      <g>
        <path class="z" d="M2.01,12.34c0,.1,.04,.25,.05,.33,0,.08,.02,.16,.04,.24,.08-.07,.15-.14,.24-.18l.22-.14s0-.02,0-.03v.03s.13-.06,.13-.06h.03v-.03c-.02-.1-.03-.21-.05-.32,0-.04,0-.07,0-.11,.02,.1,.13,.39,.15,.39h.03c.18-.08,.37-.14,.56-.19,.24-.08,.48-.12,.72-.14l.41-.04s.07-.03,.06-.04c0-.07-.01-.15-.03-.22-.02-.09-.04-.18-.05-.28l-.05-.58-.06-.54c0-.1,0-.26-.06-.33-.09-.08-.15-.28-.18-.42-.06-.19-.1-.38-.14-.58-.04-.32-.12-.63-.23-.91-.09-.24-.27-.29-.45-.29-.03,0-.07,0-.1,0h-.15s-.06,.04-.09,.07c0,.01-.02,.02-.03,.03-.03,0-.05,.02-.07,.04v.03h.03c-.09,.08-.18,.13-.28,.17-.06,.02-.11,.04-.17,.04-.05,.01-.1,.03-.15,.06,0,0,0,0-.01,0,0,0,0,.01,0,.02,.02,.06,.04,.13,.05,.19,0,.03,0,.06,0,.08,0-.01-.01-.02-.02-.03-.02-.06-.04-.22-.09-.24,0,0,0,0,0,.01,0,0,0,.01,0,.02-.02,.06-.08,.11-.11,.14-.05,.06-.1,.1-.15,.14-.16,.11-.33,.2-.49,.29h-.11c-.07,.05-.14,.13-.18,.24,0,0,0,.04,0,.03,.04,0,.09,0,.13,.03-.03,.08,0,.21,0,.3,0,.06,.05,.11,.05,.15l.05,.14c.01,.05,.02,.11,.02,.17,0,0,0,0,0,0,0,0,0,0,0,0,0,0,0,0,0,0,0,0,0,0,0,0,.04,0,.06-.04,.1-.04,.05-.03,.1-.03,.15-.03-.04,.03-.08,.06-.11,.1-.03,.03-.06,.06-.09,.1-.03,.06,.05,.15,.06,.19,.05,.16,.08,.33,.09,.5,.02,.14,.05,.27,.09,.39,.03,.06,.05,.13,.06,.21v.11s.01,.01,.02,.01,.01,0,.02-.01c.03-.01,.06-.02,.09-.03,0,0-.02,.02-.03,.03-.02,.04-.05,.07-.06,.11,0,.04,.04,.12,.05,.15,.02,.04,.03,.09,.04,.15,0,.05,0,.11,0,.16-.02,.06-.03,.08,0,.12,.03,.04,.09,.03,.07,.11h0Z"/>
        <path class="o" d="M2.48,8.27h-.02s-.02,0-.03,0h-.05l-.05,.03s-.01,0-.02,0c0,0,0,0,0,0,0,0,0,0,0,0s0,0,0,0c0,0,0,0,0,0v.08s0,.02,0,.03v.07s0,.03,0,.04c0,.02,0,.05,0,.07,0,0,0-.02,0-.03,0-.01-.01-.03-.02-.04l-.02-.07s-.01-.05-.02-.07c0-.01-.02-.04-.04-.04,0,0,0,0,0,0,0,.01,0,.03,0,.04-.01,.02-.02,.04-.04,.06-.03,.03-.05,.07-.08,.1l-.05,.04-.04,.03s-.06,.04-.09,.06l-.18,.11-.09,.06-.09,.04-.05,.03s-.03,0-.05,0c-.03,0-.06,0-.09,.03-.03,.02-.06,.04-.09,.07-.02,.03-.04,.07-.06,.11l-.02,.03h.03s.06,.01,.09,.03h0s0,.04,0,.06v.03s0,.29,0,.29c0,.01,0,.03,0,.04l.04,.06,.02,.07,.02,.07v.03s.01,.03,.02,.04v.12s.03-.02,.05-.03c.02-.01,.05-.02,.07-.03h.15s-.02,.01-.02,.01h-.02s-.03,.06-.03,.06l-.04,.04-.04,.03-.04,.04h0s0,.01,0,.01c0,0,0,0,0,0s0,0,0,0,0,0,0,0c0,0,0,0,0,0,0,.01,0,.03,0,.04,0,.02,.02,.04,.03,.06l.03,.04s0,.02,0,.03v.04s.02,.04,.03,.06l.02,.06,.02,.14v.12s0,.04,0,.06v.07s.02,.08,.04,.11l.03,.12,.05,.11s.03,.07,.04,.11c.02,.04,.03,.09,.03,.14,0,.02,0,.04,0,.06,0,0,0,0,0,0s0,0,0,0h.03s.02-.01,.04-.01h.05s-.02,.03-.04,.06c-.01,.02-.03,.03-.04,.06,0,0,0,0,0,.01h0s0,.04,0,.06c.01,.02,.02,.05,.04,.07,0,0,.01,.02,.02,.03,0,.01,0,.03,0,.04,0,.03,.01,.05,.02,.08,0,.03,0,.06,0,.08v.04s0,.03,0,.04l-.03,.08s0,.02,0,.03c0,0,0,0,0,.01h0s.04,.04,.05,.06c0,0,0,.01,0,.02,0,0,0,.01,0,.02,0,.01,0,.03,0,.04,0,.03,0,.06,0,.08l.02,.08c0,.06,.02,.1,.03,.15,0-.06-.02-.1-.03-.15-.01-.03-.02-.05-.03-.08,0-.03,0-.06,0-.08,0-.01,0-.03,0-.04,0-.01-.01-.02-.02-.03l-.05-.04s0,0,0-.01h0s0-.03,0-.04c0,0,0-.02,0-.03l.02-.08s0-.03,0-.04v-.04s0-.06,0-.08c0-.02-.02-.05-.03-.07,0-.01,0-.03,0-.04,0,0-.01-.02-.02-.03-.01-.02-.03-.04-.04-.07,0-.01,0-.03,0-.04h0s0-.04,0-.06c.01-.02,.03-.04,.05-.06l.04-.06s-.05,.03-.07,.04h0s-.01,0-.02,0h0s0-.02,0-.03c0-.02,0-.05,0-.07,0-.02,0-.04,0-.06,0-.02-.01-.04-.02-.06l-.04-.11-.05-.12s-.03-.07-.04-.11c0-.05-.01-.09-.02-.14h0v-.11l-.02-.14s-.01-.07-.02-.11c0-.02-.01-.04-.02-.06,0-.02-.01-.05-.02-.07,0-.01-.01-.02-.02-.03l-.03-.04s-.02-.04-.03-.06c0-.01,0-.02,0-.03s0-.02,0-.03c.02-.04,.04-.07,.06-.1l.04-.03,.04-.04,.04-.03h.02s.02-.01,.02-.01c0,0,0,0,0,0s0,0,0,0c0,0,0,0,0,0s0,0,0,0h-.05s-.09,.01-.09,.01c-.02,0-.03,.02-.05,.03l-.05,.03h-.04v-.1s0-.02,0-.03c0-.01,0-.03,0-.04v-.03l-.03-.07-.02-.07-.04-.07s0-.02,0-.03v-.03s0,0,0-.01v-.19s0-.03,0-.04v-.08s0,.03,0,.03c-.03-.02-.06-.02-.09-.03h-.05s0,0,0,0c0,0,0,0-.01,0,0,0,0,0,0-.01,0,0,0-.01,0-.02,0,0,0,0,0-.01,0,0,0-.02,0-.03l.02-.03s.05-.08,.07-.11c.01-.01,.02-.03,.04-.04,.01-.01,.03-.02,.05-.03,0,0,.02-.01,.03-.01,0,0,.02,0,.03,0h.04s.03,0,.05-.01l.05-.03,.09-.04,.09-.06,.18-.1s.06-.03,.09-.06c.02-.01,.03-.03,.05-.04,.02-.01,.03-.03,.05-.04,.03-.03,.05-.05,.07-.08,.01-.02,.03-.04,.04-.06,0,0,0-.02,0-.03,0,0,.01-.01,.02-.01,0,0,0,0,0,0s0,0,0,0c0,0,.02,0,.03,.01,0,0,0,.02,0,.03l.03,.07v.07s.02,.03,.03,.04c0,0,0,.02,0,.03,0-.02,0-.05,0-.07v-.14s-.02-.07-.02-.07c0,0,0,0,0-.01,0,0,0,0,0-.01,0,0,.02-.01,.03-.01l.05-.03h.06l.03-.03Z"/>
        <g class="aa">
          <path class="w" d="M4.56,11.82c-.02-.09-.03-.18-.04-.28l-.06-.58-.06-.54c0-.1,.02-.26-.05-.33-.1-.08-.15-.28-.2-.42-.05-.19-.1-.38-.13-.58-.04-.32-.11-.63-.22-.91-.11-.24-.28-.29-.45-.28-.04,0-.07,0-.11,0h-.14s-.06,.03-.09,.06c0,.01-.02,.02-.03,.03-.03,0-.05,.02-.07,.04,0,.01,0,.04,0,.03h.02c-.09,.08-.18,.13-.28,.17-.05,.02-.11,.04-.16,.04-.04,0-.07,.01-.11,.03,.2,1.38,.45,2.73,.69,4.09l.34-.11c.24-.08,.48-.12,.72-.14l.41-.04s.06-.01,.06-.03c0-.08-.02-.16-.04-.24Z"/>
        </g>
        <path class="k" d="M3.52,11.4l-.08,.22s-.03,.04,.15,.08c.18,.04,.89,.15,1,.33l-.14-1.25-.94,.61Z"/>
        <path class="u" d="M3.47,11.68c.26-.19,.53-.34,.81-.46l.22-.08-.05-.35-.94,.61-.08,.22s0,.03,.04,.06Z"/>
        <path class="z" d="M13.5,12.34c.02,.1-.04,.25-.05,.33,0,.08-.01,.16-.04,.24-.07-.07-.15-.14-.24-.18l-.22-.14s0-.02,0-.03c0,0,0,.02,0,.03l-.13-.07h-.02s0,0,0,0,0,0,0,0c.02-.11,.03-.22,.05-.33,0-.03,0-.06,0-.1-.03,.08-.14,.39-.16,.39h-.03c-.18-.08-.37-.14-.56-.19-.23-.07-.47-.12-.71-.14l-.42-.04-.06-.04c0-.07,.02-.15,.04-.22,.02-.09,.03-.18,.04-.28l.05-.58,.06-.54c.02-.1,0-.28,.06-.33,.1-.08,.15-.28,.19-.42,.05-.19,.09-.38,.13-.58,.04-.32,.12-.63,.23-.91,.1-.24,.27-.29,.45-.29,.03,0,.07,0,.1,0,.05,.01,.09,0,.15,0,.03,.01,.06,.04,.09,.07,0,.01,.02,.02,.03,.03,.02,.01,.04,.02,.06,.04,0,0,0,.04,0,.03h-.02c.08,.08,.18,.13,.27,.17,.06,.02,.12,.04,.18,.04,.05,.01,.1,.03,.15,.06,0,0,0,0,0,.01,0,0,0,.01,0,.02-.01,.07-.02,.14-.03,.21,0,.03,0,.06,0,.08,0-.01,0-.02,0-.03,.03-.06,.05-.22,.09-.24,0,0,0,0,.01,0,0,0,0,0,0,.01,0,.07,.07,.14,.1,.17,.05,.06,.11,.1,.16,.14,.16,.09,.32,.17,.48,.25h.11c.07,.05,.13,.14,.18,.24,0,0,0,.03,0,.03-.05,0-.09,0-.14,.03,.04,.08,.02,.21,.02,.3,0,.06-.05,.11-.05,.15l-.05,.14c-.01,.05-.02,.11-.02,.17,0,0,0,0,0,0s0,0,0,0c-.04,0-.06-.04-.09-.06-.06,0-.11,0-.16-.03,.04,.03,.08,.07,.11,.11,.03,.03,.06,.06,.09,.1,.03,.06-.05,.14-.06,.19-.05,.16-.07,.33-.08,.5-.02,.14-.05,.27-.1,.39-.03,.06-.05,.13-.06,.21v.1s0,.02-.02,.02c0,0-.01,0-.02,0-.03-.01-.06-.02-.09-.03,0,0,.01,.02,.02,.03,.02,.04,.05,.07,.06,.11,0,.04-.04,.12-.05,.15-.02,.05-.03,.1-.03,.15,0,.05,0,.11,0,.16,0,.06,.03,.08,0,.11-.03,.03-.09,.04-.08,.14h0Z"/>
        <g class="y">
          <path class="v" d="M12.34,12.34c.23-1.36,.53-2.68,.9-3.96-.04,.04-.05,.18-.07,.22,0,0-.01,.02-.02,.03,0-.03,0-.06,0-.08,0-.07,.02-.14,.04-.21,0,0,0-.01,0-.02,0,0,0,0-.01,0-.05-.02-.1-.04-.15-.06-.06,0-.12-.02-.17-.04-.1-.03-.19-.09-.27-.17h0s.02,0,0-.01c-.02-.02-.04-.04-.06-.06,0,0-.02,0-.03-.01-.03-.03-.06-.06-.09-.07h-.14s-.07,0-.11,0c-.17,0-.35,.04-.45,.28-.1,.29-.18,.59-.22,.91-.03,.19-.08,.38-.13,.57-.05,.15-.09,.35-.19,.43-.07,.07-.05,.22-.06,.33l-.06,.54-.05,.58c0,.09-.02,.19-.05,.28-.01,.07-.02,.15-.03,.22l.06,.04,.41,.03c.24,.02,.48,.06,.72,.14l.24,.1Z"/>
        </g>
        <path class="k" d="M11.99,11.4l.09,.22s.02,.04-.16,.08c-.18,.04-.89,.15-1,.33l.14-1.25,.94,.61Z"/>
        <path class="u" d="M11.64,11.43c.13,.07,.26,.15,.39,.25,.05-.03,.04-.06,.04-.06l-.09-.22-.93-.61-.05,.42c.22,.03,.43,.11,.64,.22Z"/>
        <path class="p" d="M2.77,6.31s-.02,.02-.03,.03l.09-.08-.06,.06Z"/>
        <path class="ae" d="M12.09,11.62l.09-.69,.61-4.6c-1.09-.97-2.94-1.62-5.03-1.62s-3.95,.64-5.04,1.62l.62,4.6,.09,.69c.85-.89,2.47-1.48,4.33-1.48s3.47,.6,4.32,1.48h0Z"/>
        <path class="x" d="M3.34,10.95s0,0,0,0,0,0,0,0l-.62-4.61s0,0,0,0,0,0,0,0c1.14-1.02,3.02-1.65,5.05-1.65s3.91,.61,5.04,1.63c0,0,0,0,0,0s0,0,0,0c0,0,0,0,0,0,0,0,0,0,0,0s0,0,0,0c0,0,0,0,0,0-1.13-1.01-3-1.62-5.03-1.62s-3.88,.62-5.02,1.63l.63,4.57s0,0,0,0c0,0,0,0,0,0s0,0,0,0c0,0,0,0,0,0h-.02Z"/>
        <path class="n" d="M5.87,9.59c-.31,.07-.46,.11-.77,.22v-1.95l-.47,.17c-.04,.13-.07,.27-.09,.42-.07,.45-.16,.89-.29,1.32-.04,.14-.1,.27-.16,.39-.06,.12-.14,.21-.24,.26-.06,.03-.12,.03-.18,0-.09-.04-.13-.11-.13-.22,0-.05,.01-.1,.04-.14,.02-.05,.05-.09,.09-.11,.06-.03,.09,0,.1,.14,0,.14,.04,.14,.09,.14,.07-.03,.13-.09,.18-.17,.05-.08,.08-.17,.1-.28,.03-.19,.04-.4,.04-.6v-.51s-.05-.61-.05-.61c0-.26,.03-.51,.09-.75,.06-.23,.15-.45,.25-.65,.06-.14,.18-.33,.32-.58l-.02-.04c-.27,.1-.41,.14-.68,.28-.04,.02-.08,.04-.12,.07l-.2,.19v-.06l.06-.19c.02-.08,.05-.15,.08-.21,.02,0,.04,0,.05,0,.03,.01,.05,.01,.08,0,.6-.28,1.21-.49,1.84-.61v4.09Zm-.8-2.01v-1.59c-.1,.1-.17,.25-.21,.42-.03,.11-.07,.23-.09,.35-.03,.11-.05,.23-.06,.35l-.07,.44v.18l.44-.17v.03Zm2.15-.21c0,.2-.01,.39-.04,.58-.02,.17-.05,.33-.09,.48-.05,.18-.09,.29-.09,.33-.05,.13-.1,.26-.15,.39l-.08,.21s-.02,.05-.03,.06c-.01,.02-.03,.03-.05,.04-.05,0-.11-.07-.21-.22-.14-.23-.24-.5-.31-.79-.04-.18-.07-.36-.09-.54-.03-.19-.05-.38-.05-.57v-.69l.2-.18,.23-.19h.04v.89c0,.13,.02,.26,.04,.39,.03,.21,.06,.41,.11,.61,.03,.14,.07,.28,.12,.4,.03,.07,.07,.13,.12,.17,.04-.1,.06-.22,.07-.33,.02-.15,.03-.3,.04-.46,0-.2-.03-.41-.08-.6-.05-.18-.12-.34-.22-.47l.32-.5c.05,.06,.09,.13,.12,.21,.08,.24,.12,.51,.11,.78h0Zm1.3,1.74s-.05,.1-.15,.19c-.06,.06-.12,.11-.18,.14-.04,0-.07-.07-.12-.17l-.07-.17c-.06,.03-.13,.08-.18,.14-.07,.07-.14,.13-.21,.18-.02,0-.05-.04-.1-.14-.12-.23-.18-.51-.18-.8,0-.13,.01-.25,.04-.37,.04-.15,.09-.29,.16-.42,.08-.15,.19-.27,.31-.35,.11-.07,.15-.12,.15-.17,0-.08-.04-.17-.11-.24-.04-.06-.1-.11-.15-.14-.03,0-.06,.02-.09,.04-.04,.02-.07,.03-.11,.04-.04,0-.08-.01-.11-.04-.01,0-.03-.02-.03-.04,0-.02-.01-.04-.01-.07,0-.01,0-.03,0-.04,0-.01,0-.03,.01-.04,0-.01,.01-.02,.02-.02,0,0,.02,0,.03,0,.03,0,.06,.01,.09,.03,.02,0,.03,0,.05,0,.07-.01,.14-.05,.2-.1l.28-.21s.11,.08,.22,.22,.18,.32,.18,.44v1.88s.02,.1,.04,.14c.01,.03,.02,.06,.04,.08h0Zm-.55-.28v-1.33s-.09,.06-.12,.1c-.03,.05-.06,.1-.07,.16-.04,.11-.06,.23-.06,.36,0,.17,.03,.33,.07,.48,.05,.17,.1,.28,.13,.25h.05v-.03Zm1.18,.64l-.5-.06v-3.6c.08-.06,.16-.1,.24-.14,.09-.05,.17-.09,.26-.12v3.92Zm1.41-1.18c0,.17-.03,.33-.07,.48-.02,.09-.06,.17-.1,.25l-.18,.32c-.14,.21-.22,.3-.26,.29-.05-.02-.09-.07-.12-.12l-.15-.21c-.11-.16-.2-.35-.27-.55-.07-.2-.11-.42-.11-.65,0-.16,.02-.31,.05-.46,.03-.13,.08-.25,.14-.36,.27-.48,.43-.71,.46-.69,.08,.09,.14,.19,.2,.3,.1,.18,.19,.37,.26,.57,.04,.13,.08,.27,.1,.42,.03,.13,.04,.27,.05,.42Zm-.34,.55c0-.31-.06-.62-.15-.9-.15-.44-.27-.69-.37-.71-.03,0-.05,.03-.06,.08-.01,.08-.01,.17,0,.25,0,.28,.04,.57,.13,.82,.12,.26,.26,.49,.42,.71,.02-.02,.04-.05,.05-.08,0-.05,0-.09,0-.14v-.03Zm1.8,1.23s-.05,.1-.15,.17c-.06,.05-.12,.09-.19,.1-.02,0-.05-.08-.11-.22-.05-.11-.08-.24-.09-.37v-1.74c0-.08-.02-.15-.04-.22-.03-.08-.05-.14-.09-.15,0,0-.02,0-.03,0,0,0-.02,.01-.02,.03-.01,.02-.02,.05-.02,.08v2.35l-.51-.19v-2.38c0-.07-.02-.14-.05-.19l-.05-.11s.06-.06,.19-.11c.07-.04,.14-.07,.22-.08,.03,.01,.07,.1,.12,.22,.05,.12,.07,.21,.09,.22,.08,0,.17-.03,.25-.07l.22-.07s.06,.07,.11,.19c.05,.13,.07,.27,.07,.42v1.77c0,.06,.01,.11,.03,.17l.05,.22h0Z"/>
        <path class="j" d="M5.87,9.45l-.77,.21v-1.94l-.47,.17c-.04,.13-.07,.27-.09,.42-.07,.45-.16,.89-.29,1.32-.04,.14-.1,.27-.16,.39-.06,.11-.14,.2-.24,.25-.06,.03-.12,.03-.18,0-.09-.03-.13-.1-.13-.21,0-.05,.01-.1,.04-.14,.02-.05,.05-.09,.09-.11,.06-.03,.09,0,.1,.14,0,.14,.04,.14,.09,.14,.07-.03,.13-.09,.18-.17,.05-.08,.08-.17,.1-.28,.03-.19,.04-.4,.04-.6v-.51s-.05-.61-.05-.61c0-.26,.03-.51,.09-.75,.06-.23,.15-.45,.25-.65,.06-.14,.18-.33,.32-.58l-.02-.06-.68,.28s-.08,.05-.12,.08l-.2,.19v-.06l.06-.19c.02-.08,.05-.15,.08-.21,.02,0,.04,0,.05,0,.03,0,.05,0,.08,0,.6-.28,1.21-.49,1.84-.61v4.09Zm-.8-2.01v-1.59c-.1,.1-.17,.25-.21,.42-.04,.11-.07,.23-.09,.35-.03,.11-.05,.23-.06,.35l-.07,.44v.18c.14-.06,.29-.12,.44-.17v.03Zm2.15-.21c0,.2-.01,.39-.04,.58-.02,.17-.05,.33-.09,.48-.07,.25-.15,.49-.25,.72l-.08,.21s-.02,.05-.03,.06c-.01,.02-.03,.03-.05,.04-.05,0-.11-.07-.21-.22-.14-.23-.24-.5-.31-.79-.04-.18-.07-.36-.09-.54-.03-.19-.05-.38-.05-.57v-.69l.2-.18,.23-.19h.04v.89c0,.13,.02,.26,.04,.39,.03,.21,.06,.41,.11,.61,.03,.14,.07,.28,.12,.4,.03,.07,.07,.13,.12,.17,.04-.1,.06-.22,.07-.33,.02-.15,.03-.3,.04-.46,0-.21-.03-.42-.08-.61-.05-.17-.12-.33-.22-.46l.32-.51c.05,.06,.09,.14,.12,.22,.08,.24,.12,.51,.11,.78h0Zm1.3,1.74s-.05,.1-.15,.19c-.06,.06-.12,.11-.18,.14-.04,0-.07-.07-.12-.17l-.07-.17c-.06,.03-.13,.08-.18,.14-.07,.07-.14,.13-.21,.18-.02,0-.05-.04-.1-.14-.12-.23-.18-.51-.18-.8,0-.13,.01-.25,.04-.37,.04-.15,.09-.29,.16-.42,.08-.15,.19-.27,.31-.35,.11-.06,.15-.12,.15-.17,0-.08-.04-.15-.11-.24-.04-.06-.1-.11-.15-.14-.03,.01-.06,.02-.09,.04-.03,.02-.07,.04-.11,.04-.04,0-.07,0-.11-.03-.02-.01-.03-.03-.04-.05,0-.02-.01-.05,0-.07,0-.07,.02-.1,.06-.11,.03,0,.06,.01,.09,.03,.02,0,.03,0,.05,0,.07-.01,.14-.05,.2-.1l.28-.21s.11,.08,.22,.22c.13,.18,.18,.32,.18,.44v1.88s.02,.1,.04,.14c.01,.03,.02,.06,.04,.08h0Zm-.55-.29v-1.32s-.09,.06-.12,.1c-.03,.05-.06,.1-.07,.16-.04,.11-.06,.23-.06,.36,0,.17,.03,.33,.07,.48,.05,.17,.1,.28,.13,.25h.05v-.04Zm1.18,.65l-.5-.06v-3.6c.08-.05,.16-.1,.24-.14,.09-.05,.17-.09,.26-.12v3.92Zm1.41-1.18c0,.17-.03,.33-.07,.48-.02,.09-.06,.17-.1,.25l-.18,.32c-.14,.22-.22,.3-.26,.3-.05-.02-.09-.07-.12-.12l-.15-.21c-.11-.16-.2-.35-.27-.55-.07-.2-.11-.42-.11-.65,0-.16,.02-.31,.05-.46,.03-.13,.08-.25,.14-.36,.27-.48,.43-.71,.46-.69,.08,.09,.14,.19,.2,.3,.1,.18,.19,.37,.26,.57,.04,.13,.08,.27,.1,.42,.03,.13,.04,.27,.05,.42h0Zm-.34,.54c0-.31-.06-.62-.15-.9-.15-.46-.27-.69-.37-.69-.03-.01-.05,.01-.06,.08-.01,.07-.02,.14-.02,.21,0,.29,.04,.58,.13,.83,.12,.26,.27,.5,.43,.72,.02-.02,.04-.05,.05-.08,0-.05,0-.09,0-.14v-.03Zm1.8,1.23s-.05,.1-.15,.17c-.06,.05-.12,.09-.19,.1-.02,0-.05-.08-.11-.22-.05-.11-.08-.24-.09-.37v-1.74c0-.08-.02-.15-.04-.22-.03-.08-.05-.14-.09-.15,0,0-.02,0-.03,0,0,0-.02,.01-.02,.03-.01,.02-.02,.05-.02,.08v2.35l-.51-.19v-2.38c0-.07-.02-.14-.05-.19-.02-.04-.03-.07-.05-.11l.19-.12c.07-.04,.14-.06,.22-.07,.03,.01,.07,.08,.12,.22,.05,.14,.07,.21,.09,.22,.08,0,.17-.03,.25-.07,.07-.03,.14-.05,.22-.07,.03,0,.06,.07,.1,.19,.05,.13,.08,.27,.08,.42v1.77c0,.06,.01,.11,.03,.17l.05,.21Z"/>
        <path class="r" d="M3.65,10.25c.06,.03,.12,.03,.18,0,.1-.05,.18-.13,.25-.25l.05-.11-.15,.04c-.04,.05-.09,.09-.14,.11,0,0-.01,0-.02,0,0,0-.02,0-.02,0,0,0-.01-.01-.02-.02,0,0,0-.02-.01-.03l-.24,.06c0,.11,.05,.17,.13,.21h0Zm.44-4.1l.67-.28,.03,.06c-.11,.19-.22,.38-.33,.58l-.13,.3,.12-.07,.3-.11v-.06c.03-.11,.07-.22,.1-.33,.04-.17,.12-.32,.22-.42v.69l.71-.22,.09-.03v-.94c-.62,.13-1.24,.33-1.84,.62-.03,.01-.06,.01-.09,0-.01,0-.03-.01-.05-.01-.04,.06-.07,.13-.09,.21,0,.04-.03,.1-.05,.19v.06l.2-.19s.08-.05,.13-.07h0Zm1.18,1.07l-.19,.07v.14l-.45,.17v-.14l-.51,.21c-.01,.08-.02,.17-.02,.25l.03,.42,.41-.18c.01-.09,.03-.18,.06-.26l.48-.15v.22l.31-.11,.47-.18v-.62l-.61,.18h0Zm.91,1.09l.49-.14v-.04s-.5,.17-.5,.17c0,0,0,0,0,.01h0Zm.98-.28v-.07s0,0,0,0l-.18,.06v.07l.18-.06Zm-.68-1v-.15l-.45,.11v.21c0,.13,.01,.27,.03,.4l.47-.15v-.03c-.02-.13-.04-.26-.05-.39Zm.25-.22c.07,.11,.12,.24,.16,.39,.01,.04,.02,.08,.03,.12l.3-.08h0c0-.18-.02-.35-.05-.51l-.45,.08h0Zm1.24,.94v.06l.49-.14v-.03l-.49,.11Zm-.22,.06l-.37,.1s-.01,.05-.02,.07l.37-.1,.02-.07Zm.06-1.2l-.43,.08s.02,.02,.03,.03c.03,.03,.07,.04,.11,.04,.04,0,.08-.02,.12-.04,.03-.01,.05-.02,.08-.03,.06,.02,.11,.07,.15,.12,.07,.07,.11,.14,.11,.22l.47-.11v-.03c-.01-.14-.06-.27-.13-.36l-.52,.08h0Zm1.35,.87l-.5,.1v.03l.5-.14h0Zm-.5-1v.42l.5-.11v-.39l-.5,.08Zm.5-.8v-.24c-.09,.03-.18,.06-.26,.11-.08,.04-.16,.08-.24,.14v.06l.5-.07Zm-.09,3.61l-.15,.04,.25,.03v-.08h-.09Zm.81-2.64l.18-.03-.09-.14s-.08,.06-.15,.18h.06Zm-.19,2.53s0,0,0,.01l.15,.21c.03,.06,.07,.11,.12,.14,.05,0,.13-.1,.26-.3l.09-.14-.62,.08Zm2.25-1.07v-.06l-.3,.06-.17,.04v.06l.38-.08h.09Zm-.67,.07l-.5,.1v.03l.5-.08v-.04Zm-.5,.83v.75l.5,.19v-1.02l-.5,.08Zm1.18,.55v-.75h-.02l-.45,.08v.72c0,.13,.04,.26,.09,.37,.05,.14,.09,.22,.11,.24,.07-.02,.13-.05,.18-.11,.11-.07,.15-.14,.15-.17l-.05-.22c-.01-.05-.02-.11-.03-.17h0Z"/>
        <path class="ac" d="M9.45,3.54c.01-.11,.05-.22,.11-.29,.06-.07,.13-.11,.21-.11l.07-.68-.85,.57v.71c0,.21-.06,.25-.25,.25s-.26-.06-.26-.25v-.69c-.3-.5-.45-.76-.75-1.27l-.75,1.26v.69c0,.21-.08,.25-.26,.25s-.25-.01-.25-.22v-.71s-.85-.58-.85-.58l.07,.68c.08,0,.15,.03,.21,.11,.06,.07,.1,.18,.11,.29,.03,.24-.03,.43-.16,.48,.05,.23,.1,.45,.17,.66,.3-.07,.42-.1,.73-.14,.33-.04,.67-.06,1-.06,.33,0,.67,.01,1,.06,.3,.04,.41,.06,.71,.14,.07-.21,.13-.44,.18-.66-.15-.04-.2-.25-.17-.48Zm-1.73,.39s-.07,0-.1-.03c-.03-.02-.06-.05-.09-.09-.02-.04-.04-.08-.06-.13-.01-.05-.02-.1-.02-.16,0-.11,.03-.21,.08-.28,.05-.08,.12-.12,.19-.12s.14,.04,.19,.12c.05,.08,.08,.18,.08,.28,0,.05,0,.11-.02,.16-.01,.05-.03,.09-.06,.13-.02,.04-.05,.07-.09,.09-.03,.02-.07,.03-.1,.03Z"/>
        <path class="j" d="M9.45,3.39c.01-.11,.05-.22,.11-.29s.13-.11,.21-.1l.07-.68-.85,.57v.71c0,.21-.06,.25-.25,.24-.18-.01-.26-.06-.26-.25v-.71c-.31-.47-.46-.73-.76-1.25l-.75,1.26v.69c0,.21-.08,.25-.26,.26-.18,.01-.25-.04-.25-.25v-.69s-.85-.58-.85-.58l.07,.68c.07,0,.15,.03,.21,.1,.06,.07,.1,.17,.11,.29,0,.05,.01,.1,0,.16,0,.05-.01,.1-.03,.15-.02,.05-.04,.09-.07,.12-.03,.03-.06,.06-.09,.07,.04,.23,.09,.45,.15,.66,.31-.07,.45-.1,.76-.14,.33-.05,.67-.07,1-.07,.33,0,.67,.02,1,.07,.31,.04,.45,.07,.76,.14,.06-.21,.12-.44,.15-.66-.03-.01-.07-.04-.09-.07-.03-.03-.05-.07-.07-.12-.02-.05-.03-.1-.03-.15,0-.05,0-.11,0-.16Zm-1.73,.4s-.07,0-.1-.03c-.03-.02-.06-.05-.09-.09-.02-.04-.04-.08-.06-.13-.01-.05-.02-.1-.02-.16,0-.11,.03-.21,.08-.28,.05-.08,.12-.12,.19-.12s.14,.04,.19,.12c.05,.08,.08,.18,.08,.28,0,.05,0,.11-.02,.16-.01,.05-.03,.09-.06,.13-.02,.04-.05,.07-.09,.09-.03,.02-.07,.03-.1,.03Z"/>
        <path class="r" d="M8.48,3.29v-.4l-.02-.03-.5,.36c.02,.05,.03,.11,.03,.17,0,.08-.01,.15-.04,.22,.17-.12,.35-.22,.53-.32Zm1.36-.97l-.85,.57v.14c.27-.11,.55-.22,.81-.3l.05-.4h0Zm-2.36,1.23c-.43,.32-.84,.64-1.18,.93l.43-.08h.08c.26-.22,.55-.42,.86-.64-.04-.01-.08-.04-.11-.08-.03-.04-.06-.09-.07-.14h0Zm.73-1.08l-.48-.83-.75,1.26v.07l1.25-.5h0Z"/>
        <path class="s" d="M9.45,3.39c.01-.08,.04-.16,.07-.22l-.53,.35v.08c0,.21-.07,.25-.26,.24-.06,0-.11,0-.16-.03-.25,.18-.49,.36-.74,.55,.55-.02,1.11,.04,1.65,.18,.06-.22,.11-.44,.15-.66-.03-.01-.06-.04-.09-.07-.03-.03-.05-.07-.07-.12-.02-.05-.03-.1-.03-.15,0-.05,0-.11,0-.16h0Z"/>
        <path class="r" d="M5.68,3c.07,0,.15,.02,.21,.09,.06,.07,.1,.17,.11,.28l.45-.19v-.28l-.85-.58,.07,.68Z"/>
        <path class="ae" d="M13.97,4.22h-.45c-.34,1.17-.93,2.12-1.67,2.71,1.59,1.29,1.88,3.77,1.88,3.77,0,0,.3-2.49,1.91-3.74-.74-.6-1.33-1.57-1.66-2.74Z"/>
        <path class="ae" d="M13.5,9.69h.45c.34-1.17,.93-2.12,1.67-2.71-1.59-1.29-1.88-3.77-1.88-3.77,0,0-.3,2.49-1.9,3.74,.74,.6,1.32,1.57,1.65,2.74Z"/>
        <path class="l" d="M13.91,5.23l-.12,.36-.21,.66-.18,.6-.11,.42-.18,.51c-.07,.18-.14,.35-.22,.51-.08,.17-.17,.33-.27,.48-.11,.15-.23,.29-.36,.4,0,0-.02-.02-.03-.03,0-.01,0-.03,0-.04,.04-.13,.09-.25,.15-.36,.05-.1,.1-.21,.15-.32,.05-.12,.09-.24,.13-.36l.12-.42,.27-.91c.05-.19,.1-.39,.14-.58,0-.07-.17-.11-.5-.11-.05,0-.1,.02-.15,.04-.05,.03-.1,.07-.15,.12h-.09v-.12c.12-.27,.27-.51,.45-.69,.11-.1,.24-.15,.36-.14,.06,0,.12,0,.18,0,.06,.01,.12,.02,.18,.03h.14c.09-.01,.17-.06,.24-.14h.06v.08Z"/>
        <path class="ae" d="M12.27,9.38l-.06-.04s-.04-.03-.05-.06c-.02-.02-.03-.05-.04-.09,0-.03-.01-.07-.01-.11,0-.07,.02-.14,.19-.47,.05-.09,.09-.18,.14-.28,.04-.11,.08-.23,.12-.35l.12-.42c.1-.3,.19-.6,.27-.91l.09-.42c-.11-.02-.23-.03-.35-.03-.04,0-.07,.01-.11,.03-.04,.02-.08,.05-.11,.1l-.03,.04h-.27v-.36l.03-.04c.13-.3,.29-.55,.48-.75,.12-.12,.27-.19,.42-.19,.06,0,.13,.01,.19,.03,.06,.01,.12,.02,.18,.03h.13c.06-.02,.12-.05,.17-.1l.04-.04h.2l.05,.28-.03,.07c-.12,.32-.23,.66-.33,1l-.17,.61-.1,.39-.02,.04c-.04,.14-.1,.3-.18,.51-.07,.19-.14,.38-.23,.55-.09,.18-.19,.34-.29,.5-.11,.16-.24,.3-.37,.42l-.05,.06Zm.62-1.66l-.13,.42c-.02,.1-.05,.17-.07,.25l.11-.21c.08-.16,.15-.33,.21-.5l.18-.5,.11-.42c.12-.43,.24-.86,.38-1.27l.02-.06c-.08,.02-.16,.03-.24,.03-.07,0-.13-.01-.2-.03-.05,0-.11-.01-.16-.01-.11,0-.21,.05-.3,.14-.09,.09-.17,.2-.25,.32,.04-.01,.08-.02,.13-.01,.43,0,.62,.04,.62,.28v.07c-.11,.53-.24,1.03-.41,1.52h0Z"/>
        <path class="m" d="M15.31,7.71c0,.11-.03,.22-.07,.32-.08,.22-.18,.42-.3,.6-.08,.12-.16,.24-.25,.36-.1,.11-.22,.17-.35,.17-.09,0-.18-.03-.26-.08-.08-.05-.16-.14-.22-.24-.11-.14-.17-.34-.18-.55,.01-.16,.06-.3,.13-.42l.25-.48c-.06-.08-.12-.18-.16-.28-.05-.1-.07-.22-.07-.35,0-.18,.05-.35,.12-.5l.18-.4c.08-.2,.19-.37,.31-.51,.08-.08,.17-.12,.26-.12,.13,0,.26,.06,.36,.18,.05,.06,.09,.13,.12,.22,.03,.09,.04,.18,.04,.28,0,.24-.07,.48-.18,.65-.13,.19-.18,.33-.18,.42,.11,.11,.22,.22,.32,.35,.04,.05,.08,.11,.1,.18,.03,.07,.04,.15,.04,.23Zm-.45,.47c0-.11-.09-.26-.27-.42-.1-.1-.2-.18-.32-.22,0,0-.04,.04-.06,.12-.03,.06-.04,.12-.05,.19,0,.09,.03,.17,.06,.24,.03,.07,.07,.13,.12,.17,.08,.11,.19,.18,.3,.19,.05,0,.11-.04,.15-.1,.02-.02,.03-.05,.04-.09,.01-.03,.02-.07,.02-.11h0Zm-.14-1.72c0-.11-.04-.21-.09-.28-.03-.05-.07-.09-.11-.12-.04-.03-.09-.04-.13-.04-.02,0-.04,0-.06,.01-.02,0-.04,.02-.05,.04-.01,.02-.02,.04-.03,.06,0,.02,0,.05,0,.07,0,.14,.05,.26,.18,.39,.06,.08,.13,.14,.2,.18,.02,0,.05-.04,.06-.11,.02-.06,.03-.14,.04-.21Z"/>
        <path class="ae" d="M14.34,9.34c-.11,0-.21-.03-.31-.1-.1-.07-.19-.16-.26-.29-.12-.18-.2-.42-.21-.68,0-.2,.06-.39,.15-.54l.18-.36c-.03-.06-.06-.12-.09-.18-.06-.13-.09-.29-.09-.46,0-.21,.05-.42,.13-.6,.08-.17,.15-.29,.19-.42,.09-.21,.2-.4,.34-.55,.1-.1,.22-.14,.34-.14,.16,0,.31,.07,.44,.21,.06,.08,.12,.18,.15,.29,.03,.11,.05,.24,.05,.36,0,.29-.08,.56-.22,.76-.04,.07-.08,.15-.12,.24l.25,.28c.06,.06,.1,.14,.14,.24,.03,.09,.05,.2,.05,.3,0,.15-.04,.29-.09,.42-.09,.23-.19,.44-.32,.62l-.25,.39c-.12,.15-.27,.22-.43,.22h0Zm-.27-1.74l-.17,.36c-.05,.08-.08,.19-.09,.3,.01,.16,.06,.31,.15,.42,.05,.09,.11,.16,.18,.2,.07,.05,.14,.07,.22,.07,.1,0,.19-.03,.27-.11l.16-.26s-.09,.07-.15,.07c-.14,0-.27-.09-.38-.22-.07-.06-.12-.15-.16-.25-.04-.1-.06-.22-.07-.33,0-.09,.02-.17,.05-.25h0Zm.2-.26c.06,0,.15,.04,.36,.25,.22,.21,.34,.39,.34,.58,0,.05,0,.09-.02,.14,.07-.12,.13-.24,.18-.37,.03-.07,.05-.15,.05-.24,0-.05-.01-.1-.03-.15s-.04-.08-.07-.12c-.1-.12-.2-.24-.31-.35l-.05-.06v-.1s0-.05,0-.07c-.03,.05-.07,.08-.11,.08-.05,0-.12-.04-.27-.22-.15-.18-.23-.35-.23-.53h0s-.08,.14-.08,.14c-.06,.12-.09,.26-.09,.4,0,.09,.02,.17,.05,.24,.04,.09,.09,.18,.15,.25l.08,.11-.02,.04s.05-.04,.07-.04h0Zm.11-1.52c.06,0,.12,.02,.18,.06,.06,.04,.11,.09,.15,.16,.04,.05,.07,.12,.09,.19,.02,.07,.03,.15,.04,.23,0,.05,0,.1-.02,.15l.12-.21c.09-.13,.15-.32,.15-.51,0-.07,0-.13-.03-.19-.02-.06-.05-.11-.08-.15-.08-.1-.19-.14-.29-.14-.07,0-.14,.02-.2,.08-.09,.1-.17,.23-.23,.37,.03-.03,.07-.04,.11-.04h0Z"/>
        <path class="n" d="M13.91,5.2c-.12,.33-.23,.67-.33,1.02l-.18,.61-.11,.42c-.05,.17-.12,.34-.18,.5-.06,.18-.13,.36-.2,.53-.09,.17-.18,.32-.28,.47-.11,.16-.23,.3-.36,.42,0,0-.01-.02-.02-.03,0,0-.01-.01-.01-.02,0,0,0-.02,0-.03,.04-.13,.1-.25,.16-.36,.06-.1,.11-.2,.15-.3,.05-.12,.08-.24,.12-.36l.12-.42c.11-.32,.2-.63,.27-.91l.14-.58c0-.07-.16-.11-.49-.11-.05,0-.1,.02-.15,.04-.05,.02-.1,.06-.15,.11h-.1v-.11c.12-.27,.27-.51,.45-.69,.11-.1,.24-.16,.36-.15h.17c.06,.03,.12,.04,.18,.04h.15c.09-.01,.17-.06,.24-.14h.06v.07Zm1.39,2.49c0,.11-.03,.22-.07,.32-.08,.22-.18,.42-.3,.6-.08,.12-.16,.24-.24,.36-.1,.11-.23,.17-.35,.17-.09,0-.18-.03-.26-.09-.08-.06-.16-.14-.22-.24-.1-.14-.17-.33-.18-.54,.01-.16,.06-.3,.13-.42l.25-.5c-.06-.08-.12-.18-.16-.28-.05-.1-.07-.22-.07-.35,0-.18,.05-.35,.12-.5l.18-.39c.08-.2,.19-.38,.31-.53,.08-.08,.17-.11,.26-.11,.13,0,.26,.06,.36,.18,.05,.06,.09,.13,.12,.22,.03,.09,.04,.18,.04,.28,0,.24-.07,.47-.18,.64-.13,.21-.18,.35-.18,.42,.11,.11,.22,.23,.32,.36,.04,.04,.08,.1,.1,.17,.03,.07,.04,.14,.04,.22h0Zm-.45,.48c0-.12-.09-.26-.27-.42-.1-.1-.2-.18-.32-.22,0,0-.04,.03-.06,.11-.03,.06-.04,.13-.05,.21,0,.09,.03,.17,.06,.24,.03,.07,.07,.13,.12,.17,.09,.11,.19,.17,.3,.18,.05,0,.11-.03,.15-.08,.02-.02,.03-.05,.05-.09,.01-.03,.02-.07,.02-.11h0Zm-.14-1.72c0-.11-.04-.21-.09-.28-.03-.05-.07-.09-.11-.12-.04-.03-.09-.04-.13-.05-.02,0-.04,0-.06,.01-.02,0-.04,.02-.05,.04-.01,.02-.02,.04-.03,.06,0,.02-.01,.05-.01,.08,0,.11,.06,.25,.18,.39,.06,.08,.13,.14,.2,.18,.02,0,.05-.04,.07-.12,.02-.06,.03-.13,.04-.19Z"/>
        <path class="j" d="M13.91,5.09c-.12,.33-.23,.67-.33,1.02l-.18,.6-.11,.42-.18,.51c-.07,.18-.14,.35-.22,.51-.08,.17-.17,.33-.27,.48-.11,.15-.23,.29-.36,.4,0,0-.02-.02-.03-.03,0-.01,0-.03,0-.04,.04-.13,.1-.25,.16-.36,.05-.1,.1-.21,.15-.32,.05-.12,.09-.24,.13-.36l.12-.42,.27-.91c.05-.19,.1-.39,.14-.58,0-.07-.17-.11-.5-.11-.05,0-.1,.02-.15,.04-.05,.03-.1,.07-.15,.12h-.09v-.12c.11-.27,.26-.51,.44-.69,.11-.1,.24-.15,.36-.14,.06,0,.12,0,.18,0,.06,.01,.12,.02,.18,.03h.14c.09-.01,.17-.06,.24-.14h.07v.08Zm1.4,2.49c0,.12-.03,.23-.07,.33-.08,.21-.18,.41-.3,.58-.08,.13-.16,.25-.24,.37-.1,.11-.23,.17-.35,.17-.09,0-.18-.04-.27-.1-.08-.06-.16-.15-.22-.25-.1-.14-.17-.33-.18-.54,.01-.16,.06-.31,.14-.43l.25-.48c-.06-.08-.12-.18-.16-.28-.05-.1-.07-.22-.07-.35,0-.18,.05-.35,.12-.5l.18-.4c.08-.2,.19-.37,.31-.51,.08-.08,.17-.12,.26-.12,.13,0,.26,.06,.36,.18,.05,.06,.09,.13,.12,.22,.03,.09,.04,.18,.04,.28,0,.24-.07,.48-.18,.65-.13,.19-.18,.33-.18,.42,.11,.11,.22,.22,.32,.35,.04,.05,.08,.11,.1,.18,.03,.07,.04,.15,.04,.23h0Zm-.45,.47c0-.11-.09-.25-.27-.42-.1-.1-.2-.18-.32-.22,0,0-.04,.04-.06,.12-.03,.06-.04,.13-.05,.21,0,.09,.03,.17,.06,.24,.03,.07,.07,.13,.12,.17,.09,.11,.19,.17,.3,.18,.05,0,.11-.03,.15-.08,.02-.03,.04-.06,.05-.09,.01-.04,.02-.07,.02-.11h0Zm-.15-1.72c0-.11-.04-.21-.09-.28-.03-.05-.07-.09-.11-.12-.04-.03-.09-.04-.13-.04-.02,0-.04,0-.06,.01-.02,0-.04,.02-.05,.04-.01,.02-.02,.04-.03,.06,0,.02-.01,.05-.01,.08,0,.12,.06,.25,.18,.39,.06,.08,.13,.14,.2,.18,.03,0,.05-.04,.07-.12,.02-.06,.03-.13,.04-.19Z"/>
        <path class="q" d="M12.41,6.02c.18-.08,.35-.22,.52-.3,.2-.08,.41-.11,.61-.17,.07-.03,.15-.02,.22,.03l.04-.12,.13-.36v-.07h-.07c-.07,.07-.15,.12-.24,.12h-.15c-.06,0-.12,0-.18,0-.06-.01-.12-.02-.18-.03-.13,0-.25,.04-.36,.14-.17,.19-.32,.42-.44,.69v.14h.03s.06-.05,.09-.07Zm-.12,2.78s-.05,.1-.07,.17c0,.01,0,.02,0,.03,0,0,0,.02,.01,.02,0,.01,.02,.02,.03,.03,.13-.12,.25-.26,.35-.42l.07-.11-.4,.28Zm.6-1.56c.06-.04,.12-.06,.18-.06,.06,0,.13,.03,.18,.08l.04-.11,.11-.42,.03-.08c-.11,.02-.21,.05-.32,.1-.04,.02-.08,.04-.12,.07l-.14,.46,.04-.03Zm1.15,.04l-.23,.44c-.07,.12-.11,.27-.12,.43,0,.16,.04,.32,.11,.44,.52,.89,1,.22,.49-.32-.09,0-.18-.06-.25-.17-.15-.24-.12-.57,0-.83Zm.65-2.19c-.1,0-.19,.04-.27,.12-.12,.14-.22,.32-.3,.51l-.15,.32c-.08,.14-.13,.3-.15,.47,0,.03,0,.06,0,.1,0,.12,.02,.25,.07,.35,.05,.1,.1,.19,.16,.28h0s.05-.08,.07-.12c-.04-.08-.07-.17-.09-.26-.05-.3,.06-.51,.21-.69,0-.03,0-.06,0-.08,0-.03,0-.05,0-.07,0-.02,.02-.05,.03-.06,.03-.04,.06-.06,.1-.06,.03,0,.07,.01,.1,.03,.2-.22,.38-.46,.57-.65-.11-.12-.23-.18-.36-.17h0Z"/>
      </g>
    </g>
  </g>
  <path class="ab" d="M0,0h16V16H0C0,10.67,0,5.33,0,0Z"/>
</svg>